<svg id="Layer_1" data-name="Layer 1" xmlns="http://www.w3.org/2000/svg" viewBox="0 0 339.23 332.89"><g id="_53K6no.tif" data-name=" 53K6no.tif"><path d="M175.33,1.87c6,4,12.14,7.69,17.83,12q66.9,51.23,133.66,102.68c13.16,10.13,15.52,17.44,8.66,26.3-7,9.11-19.62,9.75-31.06,1Q244.26,97.79,184.33,51.39c-13.66-10.54-13.55-10.55-27-.19Q99,95.95,40.66,140.54c-4.69,3.57-9.77,7-15.22,9.13-9.91,3.81-16.61,3.75-23.94-7.92-1.71-2.78-2.33-9,.18-13,4.07-4.22,6.25-7.62,10.72-11.37,8.64-7.26,17.79-13.93,26.67-20.89C50,88,51.45,83.58,51.45,83.58c0-14-1.41-36.46-1.41-50.84h44.6V54.67l69.41-52.8C167.59-.85,171-.36,175.33,1.87Z" transform="translate(0 -0.01)" style="fill:#113031"/><path d="M201.08,242.87c17.43-26.54,40.11-30.28,64.09-38.38,20.79-6.59,39.38-10.19,58.37-17,12.62,67.8-54.41,138.86-135.39,140.38,24-22.9,49.7-49.62,73.48-72.41a.12.12,0,1,0-.16-.18c-11.78,9.76-53.12,47-76.35,67.47C186.87,273.18,186.33,265.34,201.08,242.87Z" transform="translate(0 -0.01)" style="fill:#00ff45"/><path d="M178.9,322.87c-40.21,20.44-82.11,9-105.71-28.5-5.66-9-10.75-18.45-19.8-28C94.45,247.87,151.18,256.17,178.9,322.87Z" transform="translate(0 -0.01)" style="fill:#00ff45"/><path d="M179.91,136.92c10.65,0,20.26-.32,29.92-.14,7.57.14,11.63,4.8,11.91,12,.38,9.62.1,19.28.1,29.53H179.91Z" transform="translate(0 -0.01)" style="fill:#113031"/><path d="M157.67,178.68h-41c0-11-1.53-22,.52-32.45,1.21-6.14,3.63-8.87,10.69-9.35,9.52-.64,19.44,0,29.83,0Z" transform="translate(0 -0.01)" style="fill:#113031"/><path d="M158,196v41.32c-10.89,0-21.58,1.07-32-.46-7.67-1.13-8.7-5.91-9.16-9.58-1.27-10.11-.44-20.48-.44-31.28Z" transform="translate(0 -0.01)" style="fill:#113031"/><path d="M180.58,196.55h43c-5.32,4.79-11,6.69-15.42,10.16a95.32,95.32,0,0,0-13.42,12.61c-7.37,8-5.44,6.59-13.77,17.58C180.93,223.74,180.58,211,180.58,196.55Z" transform="translate(0 -0.01)" style="fill:#113031"/></g></svg>