<svg id="Layer_1" data-name="Layer 1" xmlns="http://www.w3.org/2000/svg" viewBox="0 0 2198.65 459.52"><g id="_53K6no.tif" data-name="53K6no.tif"><path d="M182,17C188,21,194.14,24.69,199.83,29q66.9,51.22,133.66,102.68c13.16,10.13,15.52,17.44,8.66,26.3-7,9.11-19.62,9.75-31.06,1Q250.93,112.92,191,66.52c-13.66-10.54-13.55-10.55-27-.19Q105.7,111.07,47.33,155.67c-4.69,3.57-9.77,7-15.22,9.13-9.91,3.81-16.61,3.75-23.94-7.92-1.71-2.78-2.33-9,.18-13,4.07-4.22,6.25-7.62,10.72-11.37,8.64-7.26,17.79-13.93,26.67-20.89,10.88-8.54,12.38-12.91,12.38-12.91,0-14-1.41-36.46-1.41-50.84h44.6V69.8L170.72,17C174.26,14.28,177.7,14.77,182,17Z" transform="translate(-6.67 -15.13)" style="fill:#fff"/><path d="M207.75,258c17.43-26.54,40.11-30.28,64.09-38.38,20.79-6.59,39.38-10.19,58.37-17C342.83,270.42,275.8,341.48,194.82,343c24-22.9,49.7-49.62,73.48-72.41a.12.12,0,0,0-.16-.18c-11.78,9.76-53.12,47-76.35,67.47C193.54,288.31,193,280.47,207.75,258Z" transform="translate(-6.67 -15.13)" style="fill:#00ff45"/><path d="M185.57,338c-40.21,20.44-82.11,9-105.71-28.5-5.66-9-10.75-18.45-19.8-28C101.12,263,157.85,271.3,185.57,338Z" transform="translate(-6.67 -15.13)" style="fill:#00ff45"/><path d="M186.58,152.05c10.65,0,20.26-.32,29.92-.14,7.57.14,11.63,4.8,11.91,12,.38,9.62.1,19.28.1,29.53H186.58Z" transform="translate(-6.67 -15.13)" style="fill:#fff"/><path d="M164.34,193.81h-41c0-11-1.53-22,.52-32.45,1.21-6.14,3.63-8.87,10.69-9.35,9.52-.64,19.44,0,29.83,0Z" transform="translate(-6.67 -15.13)" style="fill:#fff"/><path d="M164.71,211.15v41.32c-10.89,0-21.58,1.07-32-.46-7.67-1.13-8.7-5.91-9.16-9.58-1.27-10.11-.44-20.48-.44-31.28Z" transform="translate(-6.67 -15.13)" style="fill:#fff"/><path d="M187.25,211.68h43c-5.32,4.79-11,6.69-15.42,10.16a95.26,95.26,0,0,0-13.42,12.61c-7.37,8-5.44,6.59-13.77,17.58C187.6,238.87,187.25,226.12,187.25,211.68Z" transform="translate(-6.67 -15.13)" style="fill:#fff"/></g><text transform="translate(389.01 293.63)" style="font-size:310.6533203125px;fill:#fff;font-family:Lora-Bold, Lora;font-weight:700">CO<tspan x="452.62" y="77.66" style="font-size:207.10223388671875px">2</tspan><tspan x="563" y="0"> </tspan><tspan x="644.7" y="0" style="letter-spacing:-0.0039986294006142545em">T</tspan><tspan x="845.38" y="0" style="letter-spacing:-0.0049888560210493895em">r</tspan><tspan x="992.94" y="0" style="letter-spacing:-0.000003143576572809949em">ac</tspan><tspan x="1316.63" y="0" style="letter-spacing:-0.024994577330411903em">k</tspan><tspan x="1493.4" y="0">er</tspan></text></svg>
